<svg xmlns="http://www.w3.org/2000/svg" width="500" height="31" viewBox="0 0 500 31" version="1.1"><path d="M 85.392 14 C 85.392 21.425, 85.549 24.462, 85.742 20.750 C 85.934 17.038, 85.934 10.963, 85.742 7.250 C 85.549 3.537, 85.392 6.575, 85.392 14 M 99.750 1.723 C 101.537 1.945, 104.463 1.945, 106.250 1.723 C 108.037 1.502, 106.575 1.320, 103 1.320 C 99.425 1.320, 97.963 1.502, 99.750 1.723 M 131.784 1.738 C 134.689 1.941, 139.189 1.939, 141.784 1.734 C 144.378 1.528, 142 1.363, 136.500 1.365 C 131 1.368, 128.878 1.536, 131.784 1.738 M 156.400 15.500 C 156.401 23.750, 156.556 26.992, 156.744 22.704 C 156.932 18.417, 156.931 11.667, 156.742 7.704 C 156.552 3.742, 156.399 7.250, 156.400 15.500 M 224.250 1.689 C 225.213 1.941, 226.787 1.941, 227.750 1.689 C 228.713 1.438, 227.925 1.232, 226 1.232 C 224.075 1.232, 223.287 1.438, 224.250 1.689 M 253.762 1.707 C 255.006 1.946, 256.806 1.937, 257.762 1.687 C 258.718 1.437, 257.700 1.241, 255.500 1.252 C 253.300 1.263, 252.518 1.468, 253.762 1.707 M 279.400 15.500 C 279.401 23.750, 279.556 26.992, 279.744 22.704 C 279.932 18.417, 279.931 11.667, 279.742 7.704 C 279.552 3.742, 279.399 7.250, 279.400 15.500 M 307.400 15.500 C 307.401 23.750, 307.556 26.992, 307.744 22.704 C 307.932 18.417, 307.931 11.667, 307.742 7.704 C 307.552 3.742, 307.399 7.250, 307.400 15.500 M 321.728 1.722 C 323.503 1.943, 326.653 1.946, 328.728 1.730 C 330.802 1.513, 329.350 1.333, 325.500 1.328 C 321.650 1.324, 319.952 1.501, 321.728 1.722 M 349.395 14.500 C 349.396 22.200, 349.553 25.218, 349.743 21.206 C 349.934 17.195, 349.932 10.895, 349.741 7.206 C 349.549 3.518, 349.393 6.800, 349.395 14.500 M 374.400 15.500 C 374.401 23.750, 374.556 26.992, 374.744 22.704 C 374.932 18.417, 374.931 11.667, 374.742 7.704 C 374.552 3.742, 374.399 7.250, 374.400 15.500 M 438.389 13.500 C 438.390 20.650, 438.550 23.444, 438.742 19.708 C 438.935 15.973, 438.934 10.123, 438.739 6.708 C 438.545 3.294, 438.387 6.350, 438.389 13.500 M 460.762 1.707 C 462.006 1.946, 463.806 1.937, 464.762 1.687 C 465.718 1.437, 464.700 1.241, 462.500 1.252 C 460.300 1.263, 459.518 1.468, 460.762 1.707 M 485.784 1.738 C 488.689 1.941, 493.189 1.939, 495.784 1.734 C 498.378 1.528, 496 1.363, 490.500 1.365 C 485 1.368, 482.878 1.536, 485.784 1.738 M 114.814 4.781 C 116.291 6.311, 117.689 7.434, 117.921 7.277 C 118.497 6.886, 113.838 2, 112.889 2 C 112.470 2, 113.336 3.251, 114.814 4.781 M 453.218 4.750 C 451.670 6.263, 451.325 6.774, 452.452 5.887 C 453.578 4.999, 455.400 3.775, 456.500 3.167 C 457.600 2.559, 457.945 2.047, 457.266 2.030 C 456.587 2.014, 454.765 3.237, 453.218 4.750 M 63.395 16.500 C 63.396 24.200, 63.553 27.218, 63.743 23.206 C 63.934 19.195, 63.932 12.895, 63.741 9.206 C 63.549 5.518, 63.393 8.800, 63.395 16.500 M 172.978 6.970 C 174.142 8.603, 175.604 10.255, 176.228 10.641 C 176.852 11.027, 176.103 9.690, 174.563 7.671 C 171.220 3.289, 169.960 2.731, 172.978 6.970 M 416.382 16.500 C 416.384 23.100, 416.546 25.670, 416.741 22.211 C 416.937 18.752, 416.936 13.352, 416.738 10.211 C 416.540 7.070, 416.380 9.900, 416.382 16.500 M 423 10 C 424.742 12.200, 426.393 14, 426.668 14 C 426.943 14, 425.742 12.200, 424 10 C 422.258 7.800, 420.607 6, 420.332 6 C 420.057 6, 421.258 7.800, 423 10 M 37.162 10.543 C 35.487 14.220, 35.807 15.005, 37.618 11.662 C 38.464 10.100, 38.969 8.636, 38.741 8.407 C 38.512 8.179, 37.802 9.140, 37.162 10.543 M 241.286 15.500 C 241.294 18.250, 241.488 19.256, 241.718 17.736 C 241.947 16.216, 241.941 13.966, 241.704 12.736 C 241.467 11.506, 241.279 12.750, 241.286 15.500 M 448.252 15.500 C 448.263 17.700, 448.468 18.482, 448.707 17.238 C 448.946 15.994, 448.937 14.194, 448.687 13.238 C 448.437 12.282, 448.241 13.300, 448.252 15.500 M 75 17 C 76.742 19.200, 78.393 21, 78.668 21 C 78.943 21, 77.742 19.200, 76 17 C 74.258 14.800, 72.607 13, 72.332 13 C 72.057 13, 73.258 14.800, 75 17 M 430 19 C 431.742 21.200, 433.393 23, 433.668 23 C 433.943 23, 432.742 21.200, 431 19 C 429.258 16.800, 427.607 15, 427.332 15 C 427.057 15, 428.258 16.800, 430 19 M 32.162 21.543 C 30.487 25.220, 30.807 26.005, 32.618 22.662 C 33.464 21.100, 33.969 19.636, 33.741 19.407 C 33.512 19.179, 32.802 20.140, 32.162 21.543 M 104.465 19.745 C 107.746 19.947, 111.019 20.601, 111.738 21.198 C 112.746 22.034, 112.901 21.907, 112.416 20.641 C 111.908 19.319, 110.495 19.037, 105.143 19.189 L 98.500 19.378 104.465 19.745 M 323.250 19.728 C 325.313 19.944, 328.688 19.944, 330.750 19.728 C 332.813 19.513, 331.125 19.336, 327 19.336 C 322.875 19.336, 321.188 19.513, 323.250 19.728 M 294.535 22.587 C 293.603 24.009, 293.012 25.346, 293.223 25.556 C 293.433 25.766, 294.394 24.602, 295.359 22.969 C 297.514 19.321, 296.871 19.022, 294.535 22.587 M 97.286 25.500 C 97.294 28.250, 97.488 29.256, 97.718 27.736 C 97.947 26.216, 97.941 23.966, 97.704 22.736 C 97.467 21.506, 97.279 22.750, 97.286 25.500 M 186.437 24.329 C 187.977 26.348, 189.440 28, 189.687 28 C 190.381 28, 186.052 22.150, 184.772 21.359 C 184.148 20.973, 184.897 22.310, 186.437 24.329 M 80.997 24.750 C 82.305 26.538, 83.532 28, 83.723 28 C 84.483 28, 82.003 24.249, 80.363 22.918 C 79.283 22.040, 79.525 22.739, 80.997 24.750 M 453.218 26.250 C 454.765 27.762, 456.587 28.986, 457.266 28.970 C 457.945 28.953, 457.600 28.441, 456.500 27.833 C 455.400 27.225, 453.578 26.001, 452.452 25.113 C 451.325 24.226, 451.670 24.738, 453.218 26.250 M 131.784 29.738 C 134.689 29.941, 139.189 29.939, 141.784 29.734 C 144.378 29.528, 142 29.363, 136.500 29.365 C 131 29.368, 128.878 29.536, 131.784 29.738 M 224.250 29.689 C 225.213 29.941, 226.787 29.941, 227.750 29.689 C 228.713 29.438, 227.925 29.232, 226 29.232 C 224.075 29.232, 223.287 29.438, 224.250 29.689 M 253.762 29.707 C 255.006 29.946, 256.806 29.937, 257.762 29.687 C 258.718 29.437, 257.700 29.241, 255.500 29.252 C 253.300 29.263, 252.518 29.468, 253.762 29.707 M 354.750 29.732 C 357.087 29.943, 360.913 29.943, 363.250 29.732 C 365.587 29.522, 363.675 29.349, 359 29.349 C 354.325 29.349, 352.413 29.522, 354.750 29.732 M 460.762 29.707 C 462.006 29.946, 463.806 29.937, 464.762 29.687 C 465.718 29.437, 464.700 29.241, 462.500 29.252 C 460.300 29.263, 459.518 29.468, 460.762 29.707 M 485.784 29.738 C 488.689 29.941, 493.189 29.939, 495.784 29.734 C 498.378 29.528, 496 29.363, 490.500 29.365 C 485 29.368, 482.878 29.536, 485.784 29.738" stroke="none" fill="#2ce5fc" fill-rule="evenodd"/><path d="M 0 0.870 C 0 3.211, 12.944 30.537, 14.169 30.783 C 15.121 30.974, 17.761 26.130, 22.295 15.871 C 25.988 7.514, 28.802 0.469, 28.548 0.215 C 27.080 -1.254, 24.916 2.113, 20.074 13.400 C 17.090 20.357, 14.349 25.700, 13.983 25.274 C 13.618 24.848, 10.908 18.988, 7.963 12.250 C 5.018 5.512, 2.021 0, 1.304 0 C 0.587 0, 0 0.392, 0 0.870 M 37.844 6.684 C 36.177 10.360, 33.052 17.181, 30.898 21.842 C 28.745 26.503, 27.192 30.526, 27.448 30.782 C 28.898 32.231, 31.071 28.974, 35.923 18.079 C 38.906 11.383, 41.652 5.715, 42.026 5.484 C 42.400 5.253, 45.320 10.899, 48.514 18.032 C 51.772 25.306, 54.910 31, 55.661 31 C 56.398 31, 57.002 30.663, 57.004 30.250 C 57.017 27.894, 43.411 0, 42.249 0 C 41.493 0, 39.511 3.008, 37.844 6.684 M 62 15.500 C 62 28.611, 62.231 31, 63.500 31 C 64.753 31, 65 28.951, 65 18.559 C 65 11.716, 65.399 5.871, 65.887 5.570 C 66.374 5.269, 67.387 5.805, 68.137 6.761 C 69.370 8.335, 69.334 8.370, 67.750 7.128 C 65.622 5.459, 65.384 7.244, 67.500 9 C 68.325 9.685, 69 9.910, 69 9.500 C 69 9.090, 69.748 9.373, 70.663 10.128 C 72.986 12.046, 72.095 10.251, 68 4.766 C 62.384 -2.756, 62 -2.069, 62 15.500 M 83.850 12.500 C 83.767 19.375, 83.655 26.231, 83.600 27.736 C 83.532 29.598, 84.059 30.580, 85.250 30.810 C 86.856 31.119, 87 29.867, 87 15.573 C 87 2.397, 86.769 0, 85.500 0 C 84.255 0, 83.975 2.122, 83.850 12.500 M 96 1.397 C 96 2.456, 98.052 2.880, 104.465 3.147 C 114.246 3.555, 116.400 4.882, 116.400 10.500 C 116.400 16.021, 114.217 17.422, 104.718 18 L 96.500 18.500 96.202 24.750 C 95.959 29.853, 96.189 31, 97.452 31 C 98.643 31, 99 29.846, 99 26 L 99 21 104.300 21 C 107.215 21, 110.135 21.535, 110.790 22.190 C 112.389 23.789, 115.211 24.133, 114.723 22.670 C 114.509 22.026, 113.921 21.461, 113.417 21.414 C 112.913 21.366, 111.825 21.041, 111 20.691 C 110.175 20.341, 107.025 19.901, 104 19.712 C 98.549 19.373, 98.559 19.368, 105.167 19.185 C 109.331 19.069, 111.973 19.418, 112.205 20.114 C 112.421 20.762, 113.905 20.109, 115.754 18.554 C 121.826 13.445, 120.619 4.410, 113.466 1.421 C 108.862 -0.502, 96 -0.520, 96 1.397 M 136.500 0.923 L 146.500 1.427 136.500 2.020 L 126.500 2.613 136.750 2.806 C 145.281 2.968, 147 2.748, 147 1.500 C 147 0.251, 145.287 0.035, 136.750 0.209 L 126.500 0.419 136.500 0.923 M 155 15.500 C 155 28.611, 155.231 31, 156.500 31 C 157.769 31, 158 28.611, 158 15.500 C 158 2.389, 157.769 0, 156.500 0 C 155.231 0, 155 2.389, 155 15.500 M 168 15.583 C 168 27.604, 168.286 31.072, 169.250 30.753 C 170.118 30.465, 170.653 26.695, 171 18.419 L 171.500 6.500 173.859 9.808 C 175.157 11.627, 176.465 12.868, 176.767 12.566 C 177.069 12.264, 177.920 12.519, 178.658 13.131 C 179.477 13.811, 180 13.855, 180 13.245 C 180 11.977, 177.487 9.846, 176.800 10.533 C 176.517 10.816, 175.658 10.250, 174.893 9.274 C 173.626 7.661, 173.659 7.624, 175.250 8.872 C 176.213 9.627, 177 9.928, 177 9.541 C 177 8.407, 169.844 0, 168.880 0 C 168.396 0, 168 7.012, 168 15.583 M 189.436 1.306 C 189.125 2.116, 189.013 7.736, 189.186 13.796 C 189.359 19.856, 189.162 24.605, 188.750 24.348 C 187.536 23.594, 187.892 25.478, 189.250 27.002 C 190.318 28.199, 190.238 28.205, 188.704 27.042 C 187.674 26.260, 187.164 25.015, 187.507 24.120 C 187.836 23.263, 187.786 22.881, 187.395 23.272 C 187.004 23.663, 186.080 23.481, 185.342 22.869 C 182.804 20.763, 184.079 23.505, 187.493 27.495 C 189.927 30.339, 191.220 31.180, 191.984 30.416 C 193.579 28.821, 192.898 0.796, 191.251 0.249 C 190.563 0.021, 189.747 0.496, 189.436 1.306 M 219 1.397 C 217.625 2.189, 216.493 3.212, 216.485 3.669 C 216.455 5.291, 214.848 7.024, 213.910 6.444 C 212.644 5.662, 210 12.136, 210 16.018 C 210 19.281, 212.743 25.590, 213.732 24.602 C 214.564 23.770, 217.085 26.054, 216.456 27.071 C 216.169 27.535, 217.374 28.659, 219.133 29.569 C 223.048 31.593, 230.682 31.094, 234.550 28.559 C 238.306 26.098, 236.287 24.283, 232.165 26.415 C 228.499 28.311, 223.425 28.438, 220.030 26.721 C 216.553 24.961, 213 19.290, 213 15.500 C 213 11.710, 216.553 6.039, 220.030 4.279 C 223.389 2.580, 228.888 2.693, 232.421 4.535 C 236.374 6.597, 238.151 4.800, 234.515 2.418 C 230.957 0.087, 222.265 -0.485, 219 1.397 M 249.676 0.859 C 248.673 1.255, 247.847 2.011, 247.841 2.539 C 247.835 3.068, 247.363 4.063, 246.793 4.750 C 245.381 6.451, 247.055 6.273, 249.441 4.468 C 250.509 3.661, 253.119 3, 255.241 3 C 262.924 3, 268 7.973, 268 15.500 C 268 17.480, 267.317 20.419, 266.483 22.033 C 262.392 29.944, 248.608 29.944, 244.517 22.033 C 242.589 18.305, 242.565 11.958, 244.468 9.441 C 246.488 6.770, 246.367 5.473, 244.250 7.097 C 243.287 7.835, 243.625 7.154, 245 5.583 C 246.524 3.841, 246.914 2.907, 246 3.190 C 242.886 4.154, 240 10.076, 240 15.500 C 240 19.246, 240.630 21.634, 242.250 24.025 C 244.374 27.160, 248.281 29.882, 246.485 26.975 C 245.960 26.127, 246.088 25.937, 246.862 26.415 C 247.506 26.813, 247.773 27.558, 247.456 28.071 C 246.662 29.356, 251.358 31, 255.815 30.998 C 264.529 30.995, 271 24.390, 271 15.500 C 271 9.228, 268.155 4.352, 262.980 1.752 C 259.453 -0.021, 253.006 -0.453, 249.676 0.859 M 278 15.500 C 278 28.611, 278.231 31, 279.500 31 C 280.750 31, 281 29.007, 281 19.059 C 281 12.269, 281.426 6.854, 281.989 6.507 C 282.576 6.144, 282.710 6.593, 282.319 7.612 C 281.891 8.727, 282.046 9.090, 282.761 8.648 C 283.366 8.274, 284.187 8.494, 284.585 9.138 C 285.037 9.869, 284.876 10.041, 284.155 9.595 C 282.720 8.709, 282.685 9.543, 284.050 12.094 C 284.628 13.173, 285.597 13.749, 286.205 13.373 C 286.865 12.965, 287.026 13.148, 286.606 13.829 C 285.744 15.223, 292.111 27.099, 293.485 26.659 C 294.538 26.322, 300.989 16.043, 300.996 14.691 C 300.998 14.246, 300.480 14.203, 299.845 14.595 C 299.124 15.041, 298.963 14.869, 299.415 14.138 C 299.813 13.494, 300.535 13.212, 301.019 13.512 C 301.503 13.811, 302.372 13.173, 302.950 12.094 C 304.315 9.543, 304.280 8.709, 302.845 9.595 C 302.124 10.041, 301.963 9.869, 302.415 9.138 C 302.813 8.494, 303.634 8.274, 304.239 8.648 C 304.954 9.090, 305.109 8.727, 304.681 7.612 C 304.290 6.593, 304.424 6.144, 305.011 6.507 C 305.574 6.854, 306 12.269, 306 19.059 C 306 29.007, 306.250 31, 307.500 31 C 308.769 31, 309 28.611, 309 15.500 C 309 2.918, 308.738 0, 307.607 0 C 305.964 0, 304.710 2.721, 305.651 4.245 C 306.030 4.857, 305.837 5.017, 305.197 4.622 C 303.822 3.772, 300.637 9.604, 301.614 11.184 C 302.028 11.855, 301.860 12.032, 301.197 11.622 C 299.822 10.772, 296.637 16.604, 297.614 18.184 C 298.027 18.852, 297.861 19.032, 297.205 18.627 C 296.022 17.896, 293.586 21.521, 294.388 22.818 C 294.652 23.246, 294.413 24.249, 293.858 25.048 C 292.986 26.301, 292.908 26.295, 293.287 25 C 293.914 22.857, 291.147 17.791, 289.803 18.622 C 289.140 19.032, 288.972 18.855, 289.386 18.184 C 290.363 16.604, 287.178 10.772, 285.803 11.622 C 285.140 12.032, 284.972 11.855, 285.386 11.184 C 286.363 9.604, 283.178 3.772, 281.803 4.622 C 281.163 5.017, 280.970 4.857, 281.349 4.245 C 282.290 2.721, 281.036 0, 279.393 0 C 278.262 0, 278 2.918, 278 15.500 M 318.667 0.667 C 317.009 2.324, 318.564 2.818, 326.465 3.147 C 336.246 3.555, 338.400 4.882, 338.400 10.500 C 338.400 16.021, 336.217 17.422, 326.718 18 L 318.500 18.500 318.200 24.833 C 317.938 30.374, 318.115 31.124, 319.620 30.833 C 320.961 30.573, 321.328 29.477, 321.288 25.853 L 321.237 21.207 328.723 20.829 C 335.687 20.477, 336.410 20.225, 339.104 17.210 C 343.854 11.893, 342.464 5.001, 335.986 1.752 C 332.520 0.013, 320.098 -0.765, 318.667 0.667 M 348 15.500 L 348 31 358 31 C 366.222 31, 368 30.733, 368 29.500 C 368 28.284, 366.389 28, 359.500 28 L 351 28 351 14 C 351 2.222, 350.762 0, 349.500 0 C 348.231 0, 348 2.389, 348 15.500 M 373 15.500 C 373 28.611, 373.231 31, 374.500 31 C 375.769 31, 376 28.611, 376 15.500 C 376 2.389, 375.769 0, 374.500 0 C 373.231 0, 373 2.389, 373 15.500 M 387.651 14.709 C 383.975 22.844, 380.975 29.837, 380.984 30.250 C 380.993 30.663, 381.577 31, 382.283 31 C 383.985 31, 395.389 5.471, 394.437 3.791 C 393.933 2.900, 394.041 2.810, 394.787 3.500 C 395.382 4.050, 398.383 10.113, 401.457 16.973 C 407.316 30.048, 408.167 31.454, 409.868 30.863 C 411.275 30.373, 397.557 0.578, 395.755 0.209 C 394.795 0.012, 392.173 4.703, 387.651 14.709 M 415 15.500 C 415 28.611, 415.231 31, 416.500 31 C 417.753 31, 418 28.954, 418 18.588 C 418 8.088, 418.233 6.211, 419.510 6.399 C 420.341 6.521, 421.578 7.246, 422.260 8.012 C 423.312 9.192, 423.234 9.202, 421.750 8.079 C 420.788 7.351, 420 7.062, 420 7.436 C 420 8.738, 426.292 15.938, 427.030 15.481 C 427.439 15.229, 428.387 15.805, 429.137 16.761 C 430.370 18.335, 430.334 18.370, 428.750 17.128 C 426.064 15.021, 426.663 16.698, 430.144 21.029 C 431.872 23.180, 433.641 24.722, 434.074 24.454 C 434.507 24.186, 435.187 24.494, 435.585 25.138 C 436.037 25.869, 435.876 26.041, 435.155 25.595 C 434.520 25.203, 434 25.280, 434 25.767 C 434 26.782, 438.284 31, 439.314 31 C 439.692 31, 440 24.025, 440 15.500 C 440 2.389, 439.769 0, 438.500 0 C 437.249 0, 437 2.014, 437 12.122 C 437 22.150, 436.768 24.052, 435.658 23.131 C 434.920 22.519, 434.084 22.249, 433.800 22.533 C 433.517 22.816, 432.658 22.250, 431.893 21.274 C 430.626 19.661, 430.659 19.624, 432.250 20.872 C 433.212 21.627, 434 21.938, 434 21.564 C 434 20.262, 427.708 13.062, 426.970 13.519 C 426.561 13.771, 425.613 13.195, 424.863 12.239 C 423.630 10.665, 423.666 10.630, 425.250 11.872 C 427.936 13.979, 427.337 12.302, 423.856 7.971 C 422.128 5.820, 420.359 4.278, 419.926 4.546 C 419.493 4.814, 418.813 4.506, 418.415 3.862 C 417.963 3.131, 418.124 2.959, 418.845 3.405 C 420.366 4.344, 420.332 2.732, 418.800 1.200 C 415.481 -2.119, 415 -0.307, 415 15.500 M 457 0.722 C 454.365 1.712, 450 5.101, 450 6.157 C 450 6.718, 451.385 6.013, 453.077 4.589 C 454.769 3.165, 456.681 2.002, 457.327 2.004 C 457.972 2.006, 457.087 2.869, 455.359 3.923 C 453.632 4.976, 451.913 6.332, 451.540 6.935 C 451.167 7.539, 450.442 7.773, 449.929 7.456 C 448.683 6.686, 447 11.308, 447 15.500 C 447 19.328, 448.737 24.596, 449.686 23.647 C 450.032 23.301, 450.920 23.519, 451.658 24.131 C 453.401 25.578, 453.350 25.009, 451.381 21.061 C 446.078 10.431, 458.134 -1.119, 468.785 4.389 C 472.638 6.381, 473 6.386, 473 4.449 C 473 1.369, 462.059 -1.179, 457 0.722 M 480 1.500 C 480 2.748, 481.719 2.968, 490.250 2.806 L 500.500 2.613 490.500 2.020 L 480.500 1.427 490.500 0.923 L 500.500 0.419 490.250 0.209 C 481.713 0.035, 480 0.251, 480 1.500 M 85.392 14 C 85.392 21.425, 85.549 24.462, 85.742 20.750 C 85.934 17.038, 85.934 10.963, 85.742 7.250 C 85.549 3.537, 85.392 6.575, 85.392 14 M 99.750 1.723 C 101.537 1.945, 104.463 1.945, 106.250 1.723 C 108.037 1.502, 106.575 1.320, 103 1.320 C 99.425 1.320, 97.963 1.502, 99.750 1.723 M 156.400 15.500 C 156.401 23.750, 156.556 26.992, 156.744 22.704 C 156.932 18.417, 156.931 11.667, 156.742 7.704 C 156.552 3.742, 156.399 7.250, 156.400 15.500 M 224.250 1.689 C 225.213 1.941, 226.787 1.941, 227.750 1.689 C 228.713 1.438, 227.925 1.232, 226 1.232 C 224.075 1.232, 223.287 1.438, 224.250 1.689 M 253.762 1.707 C 255.006 1.946, 256.806 1.937, 257.762 1.687 C 258.718 1.437, 257.700 1.241, 255.500 1.252 C 253.300 1.263, 252.518 1.468, 253.762 1.707 M 279.400 15.500 C 279.401 23.750, 279.556 26.992, 279.744 22.704 C 279.932 18.417, 279.931 11.667, 279.742 7.704 C 279.552 3.742, 279.399 7.250, 279.400 15.500 M 307.400 15.500 C 307.401 23.750, 307.556 26.992, 307.744 22.704 C 307.932 18.417, 307.931 11.667, 307.742 7.704 C 307.552 3.742, 307.399 7.250, 307.400 15.500 M 321.728 1.722 C 323.503 1.943, 326.653 1.946, 328.728 1.730 C 330.802 1.513, 329.350 1.333, 325.500 1.328 C 321.650 1.324, 319.952 1.501, 321.728 1.722 M 349.395 14.500 C 349.396 22.200, 349.553 25.218, 349.743 21.206 C 349.934 17.195, 349.932 10.895, 349.741 7.206 C 349.549 3.518, 349.393 6.800, 349.395 14.500 M 374.400 15.500 C 374.401 23.750, 374.556 26.992, 374.744 22.704 C 374.932 18.417, 374.931 11.667, 374.742 7.704 C 374.552 3.742, 374.399 7.250, 374.400 15.500 M 438.389 13.500 C 438.390 20.650, 438.550 23.444, 438.742 19.708 C 438.935 15.973, 438.934 10.123, 438.739 6.708 C 438.545 3.294, 438.387 6.350, 438.389 13.500 M 460.762 1.707 C 462.006 1.946, 463.806 1.937, 464.762 1.687 C 465.718 1.437, 464.700 1.241, 462.500 1.252 C 460.300 1.263, 459.518 1.468, 460.762 1.707 M 114.814 4.781 C 116.291 6.311, 117.689 7.434, 117.921 7.277 C 118.497 6.886, 113.838 2, 112.889 2 C 112.470 2, 113.336 3.251, 114.814 4.781 M 63.395 16.500 C 63.396 24.200, 63.553 27.218, 63.743 23.206 C 63.934 19.195, 63.932 12.895, 63.741 9.206 C 63.549 5.518, 63.393 8.800, 63.395 16.500 M 416.382 16.500 C 416.384 23.100, 416.546 25.670, 416.741 22.211 C 416.937 18.752, 416.936 13.352, 416.738 10.211 C 416.540 7.070, 416.380 9.900, 416.382 16.500 M 37.162 10.543 C 35.487 14.220, 35.807 15.005, 37.618 11.662 C 38.464 10.100, 38.969 8.636, 38.741 8.407 C 38.512 8.179, 37.802 9.140, 37.162 10.543 M 69 10.755 C 69 11.305, 69.675 12.315, 70.500 13 C 71.325 13.685, 72 13.895, 72 13.467 C 72 13.040, 72.900 13.505, 74 14.500 C 75.100 15.495, 76 16.740, 76 17.266 C 76 17.791, 75.115 17.159, 74.033 15.861 C 70.751 11.920, 71.771 14.832, 75.144 19.029 C 76.872 21.180, 78.621 22.734, 79.030 22.481 C 79.439 22.229, 80.387 22.805, 81.137 23.761 C 82.370 25.335, 82.334 25.370, 80.750 24.128 C 78.443 22.318, 78.483 24.222, 80.796 26.315 C 82.475 27.835, 82.589 27.790, 82.546 25.624 C 82.495 23.056, 80.209 19.753, 79 20.500 C 78.575 20.763, 77.613 20.195, 76.863 19.239 C 75.630 17.665, 75.666 17.630, 77.250 18.872 C 78.213 19.627, 79 19.917, 79 19.516 C 79 18.271, 72.790 10.877, 72.221 11.445 C 71.926 11.741, 71.080 11.481, 70.342 10.869 C 69.523 10.189, 69 10.145, 69 10.755 M 241.286 15.500 C 241.294 18.250, 241.488 19.256, 241.718 17.736 C 241.947 16.216, 241.941 13.966, 241.704 12.736 C 241.467 11.506, 241.279 12.750, 241.286 15.500 M 448.252 15.500 C 448.263 17.700, 448.468 18.482, 448.707 17.238 C 448.946 15.994, 448.937 14.194, 448.687 13.238 C 448.437 12.282, 448.241 13.300, 448.252 15.500 M 177 13.436 C 177 14.581, 183.301 22.033, 183.825 21.508 C 184.095 21.238, 184.920 21.519, 185.658 22.131 C 186.477 22.811, 187 22.855, 187 22.245 C 187 20.995, 184.491 18.842, 183.819 19.515 C 183.545 19.788, 182.461 18.997, 181.411 17.756 L 179.500 15.500 181.750 17.405 C 184.532 19.760, 184.763 18, 182 15.500 C 180.900 14.505, 180 14.040, 180 14.467 C 180 14.895, 179.325 14.685, 178.500 14 C 177.675 13.315, 177 13.062, 177 13.436 M 127 15.500 C 127 16.733, 128.778 17, 137 17 C 145.222 17, 147 16.733, 147 15.500 C 147 14.267, 145.222 14, 137 14 C 128.778 14, 127 14.267, 127 15.500 M 480 15.500 C 480 16.733, 481.778 17, 490 17 C 498.222 17, 500 16.733, 500 15.500 C 500 14.267, 498.222 14, 490 14 C 481.778 14, 480 14.267, 480 15.500 M 32.162 21.543 C 30.487 25.220, 30.807 26.005, 32.618 22.662 C 33.464 21.100, 33.969 19.636, 33.741 19.407 C 33.512 19.179, 32.802 20.140, 32.162 21.543 M 323.250 19.728 C 325.313 19.944, 328.688 19.944, 330.750 19.728 C 332.813 19.513, 331.125 19.336, 327 19.336 C 322.875 19.336, 321.188 19.513, 323.250 19.728 M 97.286 25.500 C 97.294 28.250, 97.488 29.256, 97.718 27.736 C 97.947 26.216, 97.941 23.966, 97.704 22.736 C 97.467 21.506, 97.279 22.750, 97.286 25.500 M 113.277 25.330 C 113.491 25.974, 114.079 26.507, 114.583 26.515 C 115.088 26.524, 116.063 26.888, 116.750 27.324 C 117.446 27.766, 118 27.675, 118 27.118 C 118 25.992, 116.157 24.656, 114.193 24.358 C 113.475 24.249, 113.062 24.687, 113.277 25.330 M 450 24.809 C 450 26.878, 456.313 30.323, 460.878 30.747 C 465.797 31.203, 471.503 29.623, 470.544 28.071 C 470.227 27.558, 470.494 26.813, 471.138 26.415 C 471.869 25.963, 472.041 26.124, 471.595 26.845 C 471.203 27.480, 471.359 28, 471.941 28 C 472.523 28, 473 27.325, 473 26.500 C 473 24.659, 472.221 24.659, 469 26.500 C 465.721 28.375, 460.221 28.364, 456.601 26.476 C 455.007 25.645, 453.473 25.193, 453.193 25.473 C 452.913 25.754, 452.080 25.481, 451.342 24.869 C 450.439 24.119, 450 24.100, 450 24.809 M 115 27.741 C 115 29.068, 117.243 31, 118.783 31 C 119.544 31, 119.979 30.438, 119.750 29.750 C 119.521 29.063, 118.921 28.493, 118.417 28.485 C 117.912 28.476, 116.938 28.112, 116.250 27.676 C 115.563 27.239, 115 27.269, 115 27.741 M 136.500 28.923 L 146.500 29.427 136.500 30.020 L 126.500 30.613 136.750 30.806 C 145.281 30.968, 147 30.748, 147 29.500 C 147 28.251, 145.287 28.035, 136.750 28.209 L 126.500 28.419 136.500 28.923 M 480 29.500 C 480 30.748, 481.719 30.968, 490.250 30.806 L 500.500 30.613 490.500 30.020 L 480.500 29.427 490.500 28.923 L 500.500 28.419 490.250 28.209 C 481.713 28.035, 480 28.251, 480 29.500 M 224.250 29.689 C 225.213 29.941, 226.787 29.941, 227.750 29.689 C 228.713 29.438, 227.925 29.232, 226 29.232 C 224.075 29.232, 223.287 29.438, 224.250 29.689 M 253.762 29.707 C 255.006 29.946, 256.806 29.937, 257.762 29.687 C 258.718 29.437, 257.700 29.241, 255.500 29.252 C 253.300 29.263, 252.518 29.468, 253.762 29.707 M 354.750 29.732 C 357.087 29.943, 360.913 29.943, 363.250 29.732 C 365.587 29.522, 363.675 29.349, 359 29.349 C 354.325 29.349, 352.413 29.522, 354.750 29.732 M 460.762 29.707 C 462.006 29.946, 463.806 29.937, 464.762 29.687 C 465.718 29.437, 464.700 29.241, 462.500 29.252 C 460.300 29.263, 459.518 29.468, 460.762 29.707" stroke="none" fill="#24d3f2" fill-rule="evenodd"/></svg>